# xmcd
#
# Track frame offsets:
#	150
#	19551
#	41855
#	73187
#	86988
#	110352
#	127182
#	149737
#	166312
#
# Disc length: 2565 seconds
#
# Revision: 1
# Processed by: cddbd v1.5.1PL0 Copyright (c) Steve Scherf et al.
# Submitted via: audiograbber 1.83.01
#
DISCID=880a0309
DTITLE=Thomas STOLLE Stolkmann - How I miss your Love
DYEAR=1999
DGENRE=Blues
TTITLE0=Yes I do
TTITLE1=Listen to me
TTITLE2=Blues in C
TTITLE3=Johnny
TTITLE4=How I miss Your Love
TTITLE5=What's wrong with this world
TTITLE6=Dim down the Light
TTITLE7=I'm a man
TTITLE8=Blues in G
EXTD=Stolle singt wie eine Mischung aus Joe Cocker und James Brown. Er spielt a
EXTD=mtlichen Blues und Soul. Seine 2. CD ist Klaus Lage Musik erschienen und h
EXTD=eisst "On the Ragged Edge".\n\nMehr unter www.stolleband.de
EXTT0=
EXTT1=
EXTT2=
EXTT3=
EXTT4=
EXTT5=
EXTT6=
EXTT7=
EXTT8=
PLAYORDER=
